<?xml version="1.0" standalone="no"?>
<!DOCTYPE svg PUBLIC "-//W3C//DTD SVG 20010904//EN"
 "http://www.w3.org/TR/2001/REC-SVG-20010904/DTD/svg10.dtd">
<svg version="1.0" xmlns="http://www.w3.org/2000/svg"
 width="512.000000pt" height="512.000000pt" viewBox="0 0 512.000000 512.000000"
 preserveAspectRatio="xMidYMid meet">

<g transform="translate(0.000000,512.000000) scale(0.100000,-0.100000)"
fill="#000000" stroke="none">
<path d="M1405 5012 c-71 -33 -115 -105 -115 -189 l0 -33 -335 0 c-365 0 -379
-2 -438 -58 -45 -43 -61 -82 -67 -162 l-5 -75 -65 -6 c-98 -8 -165 -52 -206
-136 -17 -34 -19 -63 -19 -288 0 -225 2 -254 19 -285 45 -84 111 -127 210
-137 l64 -6 4 -77 c4 -93 33 -144 105 -187 40 -23 61 -28 140 -31 l93 -4 -2
-592 -3 -591 -160 -5 c-156 -5 -162 -6 -226 -37 -80 -40 -159 -120 -197 -200
-26 -55 -27 -67 -30 -234 -4 -175 -3 -177 19 -193 14 -10 44 -16 76 -16 l52 0
3 -418 3 -417 27 -50 c34 -65 101 -129 163 -156 38 -17 77 -24 163 -28 l114
-6 18 -54 c33 -94 101 -167 200 -214 l65 -32 1485 0 1485 0 65 32 c99 49 167
122 200 214 l18 54 114 6 c86 4 125 11 163 28 62 27 129 91 163 156 l27 50 3
417 3 418 52 0 c32 0 62 6 76 16 22 16 23 18 19 193 -3 176 -3 177 -35 242
-40 80 -120 160 -200 197 -53 25 -71 27 -218 32 l-160 5 -3 591 -2 592 93 4
c79 3 100 8 140 31 72 43 101 94 105 187 l4 77 64 6 c99 10 165 53 210 137 17
31 19 60 19 285 0 225 -2 254 -19 288 -41 84 -108 128 -206 136 l-65 6 -5 75
c-6 80 -22 119 -67 162 -59 56 -73 58 -436 58 l-334 0 -7 59 c-9 76 -49 135
-112 163 -41 18 -63 19 -273 16 -222 -3 -228 -4 -263 -27 -55 -38 -81 -84 -86
-152 l-4 -59 -528 0 -528 0 -4 59 c-5 68 -31 114 -86 152 -35 23 -41 24 -266
27 -208 2 -235 0 -271 -16z m469 -138 c14 -14 16 -91 16 -705 l0 -689 -230 0
-230 0 0 683 c0 602 2 685 16 705 15 21 20 22 214 22 167 0 201 -2 214 -16z
m1800 -6 c14 -20 16 -103 16 -705 l0 -683 -230 0 -230 0 0 689 c0 614 2 691
16 705 13 14 47 16 214 16 194 0 199 -1 214 -22z m-2384 -803 l0 -586 -331 3
-331 3 -19 24 c-18 22 -19 46 -19 559 l0 536 22 23 21 23 329 0 328 0 0 -585z
m1800 0 l0 -585 -530 0 -530 0 0 585 0 585 530 0 530 0 0 -585z m1417 563 l23
-21 0 -538 c0 -514 -1 -538 -19 -560 l-19 -24 -331 -3 -331 -3 0 586 0 585
327 0 c322 0 327 0 350 -22z m-4059 -560 l-3 -283 -48 1 c-38 0 -53 6 -75 27
l-27 27 -3 212 c-3 223 1 255 42 283 11 8 42 15 68 15 l48 0 -2 -282z m4338
267 c41 -28 45 -60 42 -283 l-3 -212 -27 -27 c-22 -21 -37 -27 -75 -27 l-48
-1 -3 283 -2 282 48 0 c26 0 57 -7 68 -15z m-3566 -1320 c0 -346 1 -356 49
-399 19 -17 21 -30 21 -118 0 -98 0 -99 -22 -93 -91 27 -217 140 -271 242 -60
116 -67 160 -67 442 l0 251 145 0 145 0 0 -325z m750 15 l0 -310 -120 0 -120
0 0 92 c0 80 -3 95 -22 115 -28 30 -63 29 -93 -2 -23 -22 -25 -32 -25 -115 l0
-90 -115 0 -115 0 0 310 0 310 305 0 305 0 0 -310z m1040 -7 c0 -290 2 -322
19 -360 11 -23 29 -46 40 -53 19 -10 21 -19 21 -130 l0 -120 -530 0 -530 0 0
120 c0 109 2 120 20 130 11 6 29 28 40 50 19 37 20 59 20 360 l0 320 450 0
450 0 0 -317z m750 7 l0 -310 -115 0 -115 0 0 90 c0 83 -2 93 -25 115 -30 31
-62 32 -92 3 -21 -19 -23 -30 -23 -115 l0 -93 -120 0 -120 0 0 310 0 310 305
0 305 0 0 -310z m430 57 c0 -280 -6 -324 -63 -431 -42 -81 -146 -185 -224
-225 -34 -17 -65 -31 -68 -31 -3 0 -5 44 -5 98 0 88 2 101 21 118 48 43 49 53
49 399 l0 325 145 0 145 0 0 -253z m-2595 -527 c10 -32 34 -50 67 -50 36 0 68
24 68 52 0 16 9 18 80 18 l80 0 0 -200 c0 -215 -4 -240 -55 -306 -75 -98 -249
-102 -336 -7 -60 64 -64 81 -67 306 l-4 207 80 0 c72 0 81 -2 87 -20z m1795 3
c0 -28 31 -53 66 -53 35 0 59 17 69 50 6 18 15 20 87 20 l80 0 -4 -207 c-3
-225 -7 -242 -67 -306 -87 -95 -261 -91 -336 7 -51 66 -55 91 -55 306 l0 200
80 0 c68 0 80 -2 80 -17z m-2308 -213 c38 -27 100 -61 137 -75 l68 -27 11 -70
c39 -255 291 -392 525 -285 103 47 191 167 204 278 l6 49 527 0 527 0 6 -49
c8 -70 50 -153 105 -208 146 -145 392 -141 527 9 57 63 84 122 98 207 l10 69
68 27 c83 32 192 107 248 171 l41 47 -2 -1050 -3 -1050 -30 -49 c-41 -65 -104
-104 -184 -111 l-61 -6 0 435 c0 360 -3 444 -16 493 -32 124 -115 225 -233
283 l-75 37 -1025 0 -1026 0 -65 -31 c-122 -58 -213 -165 -245 -289 -12 -49
-15 -135 -15 -493 l0 -435 -61 6 c-80 7 -143 46 -184 111 l-30 49 -3 1050 -2
1050 41 -47 c23 -26 73 -70 111 -96z m-292 -540 l0 -200 -240 0 -240 0 0 103
c0 120 16 163 80 226 60 58 101 69 263 70 l137 1 0 -200z m3853 184 c56 -19
122 -80 148 -137 14 -32 19 -66 19 -144 l0 -103 -240 0 -240 0 0 200 0 200
133 0 c95 0 147 -5 180 -16z m-3858 -989 l0 -460 -101 0 c-92 0 -104 2 -141
27 -24 16 -49 44 -62 70 -20 43 -21 57 -21 436 l0 392 163 -2 162 -3 0 -460z
m3875 73 c0 -379 -1 -393 -21 -436 -13 -26 -38 -54 -62 -70 -37 -25 -49 -27
-141 -27 l-101 0 -3 450 c-1 248 0 456 3 463 3 9 46 12 165 12 l160 0 0 -392z
m-1062 239 c55 -30 112 -88 140 -141 l27 -51 3 -447 3 -448 -71 0 -70 0 0 434
c0 433 0 433 -22 466 -13 18 -36 43 -51 54 -28 21 -30 21 -997 21 -967 0 -969
0 -997 -21 -15 -11 -38 -36 -50 -54 -23 -33 -23 -33 -23 -466 l0 -434 -70 0
-71 0 3 448 3 447 27 50 c24 45 61 87 110 124 54 40 52 40 1083 38 933 -2 992
-3 1023 -20z m-110 -669 l2 -418 -930 0 -930 0 0 413 c0 228 3 417 7 420 3 4
421 6 927 5 l921 -3 3 -417z"/>
</g>
</svg>
