<?xml version="1.0" standalone="no"?>
<!DOCTYPE svg PUBLIC "-//W3C//DTD SVG 20010904//EN"
 "http://www.w3.org/TR/2001/REC-SVG-20010904/DTD/svg10.dtd">
<svg version="1.0" xmlns="http://www.w3.org/2000/svg"
 width="512.000000pt" height="512.000000pt" viewBox="0 0 512.000000 512.000000"
 preserveAspectRatio="xMidYMid meet">

<g transform="translate(0.000000,512.000000) scale(0.100000,-0.100000)"
fill="#000000" stroke="none">
<path d="M1225 5015 l-25 -24 0 -288 c0 -384 -16 -514 -87 -738 -106 -330
-284 -589 -586 -851 l-47 -41 0 -417 0 -416 -55 0 c-46 0 -60 -4 -80 -25 l-25
-24 0 -271 0 -271 25 -24 c20 -21 34 -25 80 -25 l55 0 0 -160 0 -160 -55 0
c-46 0 -60 -4 -80 -25 l-25 -24 0 -271 0 -271 25 -24 c20 -21 34 -25 80 -25
l55 0 0 -255 0 -256 25 -24 24 -25 2031 0 2031 0 24 25 25 24 0 256 0 255 55
0 c46 0 60 4 80 25 l25 24 0 271 0 271 -25 24 c-20 21 -34 25 -80 25 l-55 0 0
160 0 160 55 0 c46 0 60 4 80 25 l25 24 0 271 0 271 -25 24 c-20 21 -34 25
-80 25 l-55 0 0 406 c0 259 -4 412 -10 425 -6 10 -52 61 -103 111 -292 293
-471 667 -516 1080 -6 54 -11 239 -11 413 l0 316 -25 24 -24 25 -1351 0 -1351
0 -24 -25z m615 -295 l0 -160 -240 0 -240 0 0 160 0 160 240 0 240 0 0 -160z
m1360 -127 c0 -214 -4 -306 -15 -358 -57 -270 -309 -475 -585 -475 -276 0
-528 205 -585 475 -11 52 -15 144 -15 358 l0 287 600 0 600 0 0 -287z m640
127 l0 -160 -240 0 -240 0 0 160 0 160 240 0 240 0 0 -160z m-2000 -375 c0
-182 96 -403 231 -532 190 -181 475 -255 724 -188 207 56 392 208 485 400 49
101 69 176 77 288 l6 87 237 0 238 0 7 -82 c39 -484 238 -921 564 -1243 l71
-69 0 -223 0 -222 -522 -3 -523 -3 -50 -25 c-96 -47 -165 -140 -180 -243 l-7
-47 -79 0 c-65 0 -79 3 -79 15 0 9 -11 27 -25 40 l-24 25 -431 0 -431 0 -24
-25 c-14 -13 -25 -31 -25 -40 0 -12 -14 -15 -79 -15 l-79 0 -7 48 c-9 62 -60
156 -104 193 -19 16 -56 39 -81 51 -45 23 -48 23 -567 26 l-523 3 0 222 1 222
55 45 c188 152 392 432 504 689 76 174 150 468 150 591 0 74 -14 70 251 70
l239 0 0 -55z m-154 -1971 c39 -28 63 -63 70 -101 l7 -33 -562 0 -561 0 0 80
0 81 509 -3 c497 -3 510 -4 537 -24z m2794 -54 l0 -80 -560 0 c-480 0 -560 2
-560 14 0 25 21 70 43 95 46 50 48 50 580 51 l497 0 0 -80z m-1600 -400 l0
-240 -320 0 -320 0 0 240 0 240 320 0 320 0 0 -240z m-800 0 l0 -160 -800 0
-800 0 0 160 0 160 800 0 800 0 0 -160z m2560 0 l0 -160 -800 0 -800 0 0 160
0 160 800 0 800 0 0 -160z m-2880 -480 l0 -160 -560 0 -560 0 0 160 0 160 560
0 560 0 0 -160z m320 145 c0 -9 11 -27 25 -40 l24 -25 431 0 431 0 24 25 c14
13 25 31 25 40 0 12 15 15 80 15 l80 0 0 -160 0 -160 -80 0 c-65 0 -80 3 -80
15 0 9 -11 27 -25 40 l-24 25 -431 0 -431 0 -24 -25 c-14 -13 -25 -31 -25 -40
0 -12 -15 -15 -80 -15 l-80 0 0 160 0 160 80 0 c65 0 80 -3 80 -15z m2400
-145 l0 -160 -560 0 -560 0 0 160 0 160 560 0 560 0 0 -160z m-1600 -480 l0
-240 -320 0 -320 0 0 240 0 240 320 0 320 0 0 -240z m-800 0 l0 -160 -800 0
-800 0 0 160 0 160 800 0 800 0 0 -160z m2560 0 l0 -160 -800 0 -800 0 0 160
0 160 800 0 800 0 0 -160z m-2884 -352 c-7 -39 -31 -74 -70 -102 -27 -20 -40
-21 -537 -24 l-509 -3 0 81 0 80 561 0 562 0 -7 -32z m324 17 c0 -9 11 -27 25
-40 l24 -25 431 0 431 0 24 25 c14 13 25 31 25 40 0 12 14 15 79 15 l79 0 7
-47 c15 -103 72 -183 167 -234 l63 -34 523 -3 522 -3 0 -39 0 -40 -1920 0
-1920 0 0 40 0 39 523 3 522 3 63 34 c35 19 74 48 88 64 38 45 71 117 79 170
l7 47 79 0 c65 0 79 -3 79 -15z m2400 -65 l0 -81 -509 3 c-497 3 -510 4 -537
24 -39 28 -63 63 -70 102 l-6 32 561 0 561 0 0 -80z"/>
<path d="M1785 3415 l-25 -24 0 -351 0 -351 25 -24 24 -25 751 0 751 0 24 25
25 24 0 351 0 351 -25 24 -24 25 -751 0 -751 0 -24 -25z m1415 -375 l0 -240
-640 0 -640 0 0 240 0 240 640 0 640 0 0 -240z"/>
</g>
</svg>
