<?xml version="1.0" standalone="no"?>
<!DOCTYPE svg PUBLIC "-//W3C//DTD SVG 20010904//EN"
 "http://www.w3.org/TR/2001/REC-SVG-20010904/DTD/svg10.dtd">
<svg version="1.0" xmlns="http://www.w3.org/2000/svg"
 width="512.000000pt" height="512.000000pt" viewBox="0 0 512.000000 512.000000"
 preserveAspectRatio="xMidYMid meet">

<g transform="translate(0.000000,512.000000) scale(0.100000,-0.100000)"
fill="#000000" stroke="none">
<path d="M1562 4799 c-125 -21 -244 -114 -303 -235 -32 -66 -33 -74 -37 -210
l-4 -141 -73 38 c-204 105 -441 27 -542 -179 -33 -66 -38 -87 -42 -159 l-3
-83 -97 0 c-53 0 -115 -5 -139 -10 -120 -28 -221 -110 -279 -228 l-38 -76 0
-1440 0 -1441 22 -55 c48 -116 145 -208 260 -246 56 -18 123 -19 2273 -19
2150 0 2217 1 2273 19 115 38 212 130 260 246 l22 55 0 1441 0 1440 -37 75
c-46 93 -112 158 -206 202 -64 30 -74 32 -214 35 l-148 4 0 69 c0 162 -103
309 -257 370 -82 32 -218 33 -287 1 -27 -12 -52 -22 -56 -22 -4 0 -10 53 -12
118 -3 89 -10 130 -26 172 -44 110 -142 205 -257 247 -47 17 -108 18 -1025 19
-536 1 -999 -2 -1028 -7z m1984 -204 c31 -9 63 -28 86 -52 66 -68 68 -78 68
-413 l0 -300 -144 0 -145 0 -3 211 -3 211 -33 29 -32 29 -780 0 -780 0 -32
-29 -33 -29 -3 -211 -3 -211 -145 0 -144 0 0 303 c0 337 2 348 71 415 64 62
31 61 1065 61 800 1 948 -1 990 -14z m-336 -625 l0 -140 -650 0 -650 0 0 140
0 140 650 0 650 0 0 -140z m-2186 119 c50 -14 118 -82 134 -135 17 -58 17
-610 0 -668 -17 -56 -84 -121 -139 -136 -91 -25 -193 18 -236 100 l-24 45 3
336 3 335 27 41 c17 26 45 50 79 67 57 28 93 32 153 15z m3193 -25 c30 -19 55
-45 70 -73 23 -44 23 -48 23 -371 0 -323 0 -327 -23 -371 -43 -81 -145 -124
-236 -99 -55 15 -122 80 -139 136 -8 29 -12 131 -12 334 0 333 3 354 67 417
70 71 163 81 250 27z m-3655 -627 l3 -193 38 -76 c98 -198 332 -281 531 -188
107 51 200 170 225 288 6 29 11 123 11 207 l0 155 1165 0 1165 0 0 -155 c0
-176 10 -237 52 -317 74 -140 243 -232 395 -214 160 19 285 117 342 269 19 51
21 78 21 237 l0 180 122 0 c103 0 128 -3 165 -21 51 -25 96 -76 112 -128 8
-28 11 -413 11 -1419 l0 -1380 -28 -53 c-20 -39 -41 -62 -77 -84 l-48 -30
-2207 0 -2207 0 -48 30 c-36 22 -57 45 -77 84 l-28 53 0 1382 c0 865 4 1394
10 1416 13 49 61 104 112 129 35 17 61 21 140 21 l97 0 3 -193z"/>
<path d="M2192 3164 c-29 -14 -64 -41 -78 -60 -48 -62 -53 -94 -54 -316 l0
-206 -212 -4 c-175 -3 -220 -7 -253 -21 -50 -22 -100 -70 -128 -122 -21 -38
-22 -55 -25 -338 -4 -333 1 -371 59 -441 18 -21 55 -49 83 -62 49 -23 61 -24
264 -24 l212 0 0 -206 c0 -128 4 -221 12 -245 16 -55 73 -118 132 -145 50 -23
57 -24 356 -24 299 0 306 1 356 24 59 27 116 90 132 145 8 24 12 117 12 245
l0 206 213 0 c202 0 214 1 263 24 28 13 65 41 83 62 58 70 63 108 59 441 -3
283 -4 300 -25 338 -28 52 -78 100 -128 122 -33 14 -78 18 -252 21 l-212 4 -3
222 -3 223 -30 49 c-19 30 -49 60 -79 79 l-49 30 -326 3 -326 3 -53 -27z m656
-186 c9 -9 12 -82 12 -265 0 -269 5 -299 49 -323 12 -6 119 -10 275 -10 243 0
257 -1 276 -20 19 -19 20 -33 20 -286 0 -164 -4 -273 -10 -285 -10 -18 -24
-19 -276 -19 l-266 0 -34 -34 -34 -34 0 -264 c0 -192 -3 -267 -12 -276 -18
-18 -561 -17 -576 1 -7 8 -12 109 -14 280 l-3 267 -28 27 -27 28 -268 3 c-235
2 -268 5 -279 19 -10 13 -13 86 -13 285 0 255 1 269 20 288 19 19 33 20 276
20 156 0 263 4 275 10 44 24 49 54 49 323 0 183 3 256 12 265 17 17 559 17
576 0z"/>
</g>
</svg>
