<?xml version="1.0" standalone="no"?>
<!DOCTYPE svg PUBLIC "-//W3C//DTD SVG 20010904//EN"
 "http://www.w3.org/TR/2001/REC-SVG-20010904/DTD/svg10.dtd">
<svg version="1.0" xmlns="http://www.w3.org/2000/svg"
 width="512.000000pt" height="512.000000pt" viewBox="0 0 512.000000 512.000000"
 preserveAspectRatio="xMidYMid meet">

<g transform="translate(0.000000,512.000000) scale(0.100000,-0.100000)"
fill="#000000" stroke="none">
<path d="M1315 5104 c-98 -21 -187 -65 -411 -205 -216 -135 -277 -190 -316
-287 l-23 -57 0 -1995 0 -1995 23 -57 c39 -97 100 -152 318 -288 219 -137 282
-170 369 -196 56 -17 140 -19 1250 -22 1300 -3 1269 -4 1408 54 92 39 466 277
513 326 53 55 78 99 98 168 15 50 16 246 14 2030 l-3 1975 -23 57 c-40 99
-100 153 -334 299 -233 145 -267 162 -383 190 -77 18 -129 19 -1255 18 -992
-1 -1186 -3 -1245 -15z m2365 -2544 l0 -2400 -1120 0 -1120 0 0 2400 0 2400
1120 0 1120 0 0 -2400z m-2400 1 l0 -2370 -29 10 c-17 6 -128 72 -248 147
-194 122 -221 142 -248 186 l-30 49 0 1977 0 1977 30 49 c27 43 54 64 225 172
158 100 281 171 298 172 1 0 2 -1066 2 -2369z m2839 2211 c118 -74 214 -141
228 -159 55 -72 52 44 52 -2053 0 -2097 3 -1981 -52 -2053 -25 -32 -397 -272
-469 -302 l-38 -15 0 2370 0 2370 38 -15 c20 -9 129 -73 241 -143z"/>
<path d="M1760 4467 c-49 -16 -133 -102 -148 -153 -16 -56 -16 -412 0 -468 16
-55 99 -138 154 -154 31 -9 233 -12 796 -12 859 0 816 -4 891 80 24 26 49 66
55 88 16 53 16 411 0 464 -6 22 -31 62 -55 88 -75 84 -31 80 -897 79 -524 -1
-772 -4 -796 -12z m525 -387 l-240 -240 -85 0 -85 0 117 118 c64 64 119 127
123 140 15 49 -30 102 -87 102 -14 0 -65 -43 -145 -122 l-123 -122 0 157 c0
154 1 158 25 182 l24 25 358 0 358 0 -240 -240z m577 176 c-49 -51 -62 -71
-62 -96 0 -42 39 -80 81 -80 28 0 49 17 154 120 l121 120 77 0 c69 0 81 -3
102 -25 25 -24 25 -26 25 -215 0 -189 0 -191 -25 -215 l-24 -25 -317 0 c-301
0 -316 1 -302 18 52 59 15 142 -64 142 -12 0 -53 -32 -102 -80 l-82 -80 -85 0
-84 0 240 240 240 240 84 0 84 0 -61 -64z"/>
<path d="M1625 3335 c-16 -15 -25 -36 -25 -55 0 -19 9 -40 25 -55 23 -24 28
-25 175 -25 147 0 152 1 175 25 16 15 25 36 25 55 0 19 -9 40 -25 55 -23 24
-28 25 -175 25 -147 0 -152 -1 -175 -25z"/>
<path d="M2105 3335 c-50 -49 -15 -135 55 -135 41 0 80 39 80 80 0 41 -39 80
-80 80 -19 0 -40 -9 -55 -25z"/>
<path d="M2585 3015 c-16 -15 -25 -36 -25 -55 0 -19 9 -40 25 -55 15 -16 36
-25 55 -25 19 0 40 9 55 25 16 15 25 36 25 55 0 19 -9 40 -25 55 -15 16 -36
25 -55 25 -19 0 -40 -9 -55 -25z"/>
<path d="M3003 2717 c-181 -181 -203 -206 -203 -235 0 -44 38 -82 82 -82 29 0
54 22 235 203 181 181 203 206 203 235 0 22 -8 41 -25 57 -16 17 -35 25 -57
25 -29 0 -54 -22 -235 -203z"/>
<path d="M1804 2708 c-24 -11 -44 -48 -44 -79 0 -11 19 -40 41 -64 l42 -45
-42 -45 c-49 -53 -54 -93 -16 -130 37 -38 77 -33 131 17 l45 41 37 -35 c45
-44 75 -54 112 -38 33 14 55 58 45 92 -4 13 -23 40 -43 60 l-35 37 41 45 c50
54 55 94 17 131 -37 38 -77 33 -130 -16 l-45 -42 -45 42 c-45 42 -71 49 -111
29z"/>
<path d="M1945 2135 c-50 -49 -15 -135 55 -135 19 0 40 9 55 25 16 15 25 36
25 55 0 19 -9 40 -25 55 -15 16 -36 25 -55 25 -19 0 -40 -9 -55 -25z"/>
<path d="M2443 1830 c-47 -20 -57 -87 -18 -125 69 -70 180 29 118 104 -21 24
-68 35 -100 21z"/>
<path d="M3044 1468 c-24 -11 -44 -48 -44 -79 0 -11 19 -40 41 -64 l42 -45
-42 -45 c-49 -53 -54 -93 -16 -130 37 -38 77 -33 131 17 l45 41 37 -35 c20
-20 47 -39 60 -43 54 -16 113 43 97 97 -4 13 -23 40 -43 60 l-35 37 41 45 c50
54 55 94 17 131 -37 38 -77 33 -130 -16 l-45 -42 -45 42 c-45 42 -71 49 -111
29z"/>
<path d="M1724 1028 c-24 -11 -44 -48 -44 -79 0 -11 19 -40 41 -64 l42 -45
-42 -45 c-49 -53 -54 -93 -16 -130 37 -38 77 -33 131 17 l45 41 37 -35 c20
-20 47 -39 60 -43 54 -16 113 43 97 97 -4 13 -23 40 -43 60 l-35 37 41 45 c50
54 55 94 17 131 -37 38 -77 33 -130 -16 l-45 -42 -45 42 c-45 42 -71 49 -111
29z"/>
<path d="M985 3095 c-50 -49 -15 -135 55 -135 20 0 40 9 57 26 21 21 24 32 19
62 -11 70 -83 96 -131 47z"/>
<path d="M943 897 c-73 -73 -82 -109 -38 -152 41 -42 77 -34 145 31 32 30 61
67 65 81 13 53 -30 103 -87 103 -13 0 -47 -25 -85 -63z"/>
<path d="M3945 4375 c-16 -15 -25 -36 -25 -55 0 -19 9 -40 25 -55 15 -16 36
-25 55 -25 19 0 40 9 55 25 16 15 25 36 25 55 0 19 -9 40 -25 55 -15 16 -36
25 -55 25 -19 0 -40 -9 -55 -25z"/>
<path d="M4105 3175 c-16 -15 -25 -36 -25 -55 0 -19 9 -40 25 -55 15 -16 36
-25 55 -25 19 0 40 9 55 25 16 15 25 36 25 55 0 19 -9 40 -25 55 -15 16 -36
25 -55 25 -19 0 -40 -9 -55 -25z"/>
<path d="M4025 2535 c-50 -49 -15 -135 55 -135 41 0 80 39 80 80 0 41 -39 80
-80 80 -19 0 -40 -9 -55 -25z"/>
<path d="M4063 897 c-73 -73 -82 -109 -38 -152 41 -42 77 -34 145 31 32 30 61
67 65 81 13 53 -30 103 -87 103 -13 0 -47 -25 -85 -63z"/>
</g>
</svg>
