<?xml version="1.0" standalone="no"?>
<!DOCTYPE svg PUBLIC "-//W3C//DTD SVG 20010904//EN"
 "http://www.w3.org/TR/2001/REC-SVG-20010904/DTD/svg10.dtd">
<svg version="1.0" xmlns="http://www.w3.org/2000/svg"
 width="512.000000pt" height="512.000000pt" viewBox="0 0 512.000000 512.000000"
 preserveAspectRatio="xMidYMid meet">

<g transform="translate(0.000000,512.000000) scale(0.100000,-0.100000)"
fill="#000000" stroke="none">
<path d="M1728 5004 l-238 -96 0 -38 0 -37 -412 -118 c-247 -70 -443 -131
-487 -152 -52 -25 -93 -54 -140 -102 -74 -73 -108 -126 -140 -216 -18 -51
-315 -1506 -308 -1510 1 -1 200 -34 442 -74 242 -40 466 -78 498 -83 l57 -10
0 -1279 0 -1279 638 0 639 0 139 210 c76 115 141 210 144 210 3 0 68 -95 144
-210 l139 -210 639 0 638 0 0 1279 0 1279 58 10 c31 5 255 43 497 83 242 40
441 73 442 74 7 4 -290 1459 -308 1510 -32 90 -66 143 -140 216 -47 48 -88 77
-140 102 -44 21 -240 82 -486 152 l-413 118 0 37 0 38 -240 96 -240 96 -593 0
-592 -1 -237 -95z m1239 -77 c-8 -22 -400 -577 -407 -577 -7 0 -399 555 -407
577 -4 10 79 13 407 13 328 0 411 -3 407 -13z m-748 -385 l261 -373 0 -217 0
-217 -160 160 -160 160 45 135 c25 74 45 137 45 141 0 3 -85 28 -189 54 l-188
49 -108 180 c-60 99 -104 181 -99 183 5 2 72 30 149 62 77 32 141 58 141 57 1
0 119 -169 263 -374z m1131 302 c58 -23 105 -46 105 -51 0 -4 -47 -87 -104
-184 l-105 -176 -188 -48 c-103 -26 -188 -51 -188 -54 0 -4 20 -67 45 -141
l45 -135 -160 -160 -160 -160 0 217 0 216 262 375 262 375 41 -16 c22 -9 87
-35 145 -58z m-1695 -366 l110 -186 130 -32 c72 -18 133 -36 137 -39 5 -4 -7
-52 -26 -106 l-34 -100 71 -72 71 -73 -147 0 -147 0 0 -165 0 -165 -165 0
-165 0 0 -80 0 -80 250 0 250 0 0 160 0 160 147 0 148 0 97 -97 98 -98 0
-1007 0 -1008 -245 0 -245 0 0 -165 0 -165 -125 0 -125 0 0 -80 0 -80 205 0
205 0 0 160 0 160 165 0 165 0 0 -352 0 -353 -147 -222 -148 -223 -510 3 -510
2 0 245 0 245 163 3 162 2 0 80 0 80 -162 2 -163 3 -3 573 -2 572 85 0 85 0 0
-165 0 -165 165 0 166 0 -3 83 -3 82 -82 3 -83 3 0 159 0 160 -160 0 c-120 0
-162 3 -165 12 -3 7 -6 358 -7 780 l-3 768 210 2 210 3 3 163 2 162 -85 0 -85
0 0 -80 0 -80 -144 0 -145 0 -15 58 c-42 151 -97 299 -158 422 -37 74 -66 136
-65 136 9 9 627 183 642 181 14 -1 50 -54 130 -189z m2263 101 c174 -50 318
-92 320 -93 1 -2 -27 -61 -62 -132 -70 -140 -116 -261 -150 -394 l-22 -85
-147 -3 -147 -3 0 81 0 80 -80 0 -80 0 0 -165 0 -165 211 0 212 0 -7 -61 c-3
-34 -6 -532 -6 -1105 l0 -1044 -250 0 -250 0 0 -165 0 -165 -120 0 -120 0 0
-80 0 -80 205 0 205 0 0 160 0 160 165 0 165 0 -2 -573 -3 -572 -510 -2 -510
-3 -147 223 -148 222 0 108 0 107 165 0 165 0 0 85 0 85 -165 0 -165 0 0 450
0 450 245 0 244 0 3 -123 3 -122 163 -3 162 -2 0 85 0 85 -80 0 -80 0 0 120 0
120 -330 0 -330 0 0 722 0 723 97 97 98 98 147 0 148 0 0 -160 0 -160 250 0
250 0 0 80 0 80 -165 0 -165 0 0 165 0 165 -147 0 -147 0 71 73 71 72 -34 100
c-19 54 -31 102 -26 106 4 3 66 21 137 38 l130 32 92 157 c127 215 131 222
143 222 6 0 153 -41 328 -91z m-3118 -303 c98 -199 158 -396 185 -603 l7 -53
-161 0 -161 0 0 -205 0 -205 -120 0 -120 0 0 -80 0 -80 205 0 205 0 0 205 0
205 80 0 80 0 0 -360 c0 -336 -1 -360 -17 -360 -34 1 -773 127 -780 133 -5 5
130 702 199 1030 l10 47 89 0 90 0 -3 83 -3 82 -69 3 -68 3 6 32 c11 56 56
136 105 186 57 58 140 104 159 89 7 -6 44 -74 82 -152z m3700 113 c70 -48 121
-110 150 -187 30 -80 30 -81 -47 -84 l-68 -3 -3 -82 -3 -83 90 0 c84 0 89 -1
94 -22 26 -110 207 -1042 204 -1051 -2 -7 -160 -38 -400 -78 l-397 -66 0 364
0 363 80 0 80 0 0 -205 0 -205 205 0 205 0 0 80 0 80 -120 0 -120 0 0 205 0
205 -161 0 -160 0 6 48 c15 109 49 261 81 357 61 186 171 405 203 405 10 0 47
-19 81 -41z"/>
<path d="M1410 4280 l0 -80 85 0 85 0 0 80 0 80 -85 0 -85 0 0 -80z"/>
<path d="M1410 2817 l0 -392 208 -104 207 -103 203 101 202 101 0 395 0 395
-410 0 -410 0 0 -393z m658 151 l-3 -83 -242 -3 -243 -2 0 85 0 85 245 0 246
0 -3 -82z m2 -346 l0 -97 -125 -63 -125 -62 -120 60 -120 60 0 100 0 100 245
0 245 0 0 -98z"/>
<path d="M1820 1735 l0 -86 83 3 82 3 0 80 0 80 -82 3 -83 3 0 -86z"/>
<path d="M1990 750 l0 -80 80 0 80 0 0 80 0 80 -80 0 -80 0 0 -80z"/>
<path d="M1410 420 l0 -80 85 0 85 0 0 80 0 80 -85 0 -85 0 0 -80z"/>
<path d="M3550 4280 l0 -80 80 0 80 0 0 80 0 80 -80 0 -80 0 0 -80z"/>
<path d="M2890 2815 l0 -395 202 -101 203 -101 207 103 208 104 0 392 0 393
-410 0 -410 0 0 -395z m655 150 l0 -80 -245 0 -245 0 -3 83 -3 82 248 -2 248
-3 0 -80z m0 -345 l0 -95 -122 -63 -122 -62 -126 62 -125 63 0 97 0 98 248 -2
247 -3 0 -95z"/>
<path d="M3630 1735 l0 -85 80 0 80 0 0 85 0 85 -80 0 -80 0 0 -85z"/>
<path d="M3460 750 l0 -80 85 0 85 0 0 80 0 80 -85 0 -85 0 0 -80z"/>
<path d="M2970 585 l0 -85 80 0 80 0 0 85 0 85 -80 0 -80 0 0 -85z"/>
</g>
</svg>
